<svg xmlns="http://www.w3.org/2000/svg" viewBox="0 0 1672 941" preserveAspectRatio="xMidYMid slice">
  <defs>
    <linearGradient id="sky" x1="0" y1="0" x2="0" y2="1">
      <stop offset="0" stop-color="#2d485b"/>
      <stop offset="0.43" stop-color="#496574"/>
      <stop offset="0.66" stop-color="#4f6068"/>
      <stop offset="1" stop-color="#071b2d"/>
    </linearGradient>
    <radialGradient id="leftCool" cx="0.12" cy="0.08" r="0.62">
      <stop offset="0" stop-color="#b9d9ee" stop-opacity="0.26"/>
      <stop offset="0.54" stop-color="#739bb4" stop-opacity="0.08"/>
      <stop offset="1" stop-color="#739bb4" stop-opacity="0"/>
    </radialGradient>
    <radialGradient id="rightWarm" cx="0.96" cy="0.22" r="0.55">
      <stop offset="0" stop-color="#f5d7ad" stop-opacity="0.64"/>
      <stop offset="0.43" stop-color="#e2b57b" stop-opacity="0.23"/>
      <stop offset="1" stop-color="#e2b57b" stop-opacity="0"/>
    </radialGradient>
    <linearGradient id="floorShade" x1="0" y1="0" x2="0" y2="1">
      <stop offset="0" stop-color="#03101e" stop-opacity="0"/>
      <stop offset="0.52" stop-color="#03101e" stop-opacity="0.38"/>
      <stop offset="1" stop-color="#020a13" stop-opacity="0.92"/>
    </linearGradient>
    <filter id="cityBlur" x="-20%" y="-25%" width="140%" height="150%">
      <feGaussianBlur stdDeviation="34"/>
    </filter>
    <filter id="lightBlur" x="-80%" y="-80%" width="260%" height="260%">
      <feGaussianBlur stdDeviation="2.7"/>
    </filter>
  </defs>
  <rect width="1672" height="941" fill="url(#sky)"/>
  <rect width="1672" height="941" fill="url(#leftCool)"/>
  <rect width="1672" height="941" fill="url(#rightWarm)"/>
  <g filter="url(#cityBlur)" opacity="0.78">
    <ellipse cx="165" cy="640" rx="260" ry="270" fill="#061423" opacity="0.60"/>
    <ellipse cx="500" cy="680" rx="320" ry="230" fill="#071b2c" opacity="0.42"/>
    <ellipse cx="1040" cy="660" rx="330" ry="250" fill="#061827" opacity="0.36"/>
    <ellipse cx="1415" cy="520" rx="210" ry="330" fill="#071320" opacity="0.50"/>
    <rect x="-80" y="612" width="1832" height="380" fill="#04101d" opacity="0.46"/>
  </g>
  <g filter="url(#lightBlur)" opacity="0.72">
    <circle cx="34" cy="690" r="2.2" fill="#e6b76e" opacity="0.54"/>
    <circle cx="44" cy="754" r="2.6" fill="#e8bd78" opacity="0.40"/>
    <circle cx="106" cy="704" r="1.8" fill="#f0c987" opacity="0.36"/>
    <circle cx="132" cy="806" r="2.1" fill="#e5ae62" opacity="0.26"/>
    <circle cx="303" cy="650" r="1.7" fill="#efc784" opacity="0.22"/>
    <circle cx="1388" cy="532" r="2.2" fill="#f3d39d" opacity="0.40"/>
    <circle cx="1446" cy="610" r="2.8" fill="#edc07c" opacity="0.46"/>
    <circle cx="1516" cy="690" r="2.0" fill="#f6d9a9" opacity="0.35"/>
    <circle cx="1586" cy="584" r="2.6" fill="#edbd76" opacity="0.32"/>
  </g>
  <rect width="1672" height="941" fill="url(#floorShade)"/>
</svg>
